<?xml version="1.0" encoding="UTF-8"?>
<svg id="Layer_1" data-name="Layer 1" xmlns="http://www.w3.org/2000/svg" viewBox="0 0 111.03 68.38">
  <defs>
    <style>
      .cls-1 {
        fill: #231f20;
      }

      .cls-2 {
        isolation: isolate;
      }
    </style>
  </defs>
  <g class="cls-2">
    <g class="cls-2">
      <path class="cls-1" d="m0,2.66L12.6,0v45c0,3.96.36,6.84,2.95,7.49v1.22H.72v-1.22c2.74-.79,2.88-3.82,2.88-7.49V8.57c0-2.52-.72-3.6-3.6-4.68v-1.22Zm38.67,49.83v1.22h-10.15c-4.97,0-5.62-1.3-10.44-8.5l-4.03-6.05,6.77-7.34s10.3-10.44.94-10.15v-1.22h17.5v1.22c-1.3.14-8.64.36-18.22,12.17l10.8,15.05c2.38,3.31,5.62,3.53,6.84,3.6Z"/>
    </g>
    <g class="cls-2">
      <path class="cls-1" d="m56.67,52.49v1.22h-14.76v-1.22c2.74-.79,2.88-3.82,2.88-7.49V8.57c0-2.52-.72-3.6-3.6-4.68v-1.22l12.6-2.66v45c0,3.96.36,6.84,2.88,7.49Z"/>
      <path class="cls-1" d="m88.13,44.28l1.22.65c-1.15,3.75-5.4,9.43-15.05,9.43s-15.91-8.71-15.91-17.14c0-10.15,6.91-17.43,16.85-17.43,10.44,0,15.34,5.4,15.34,16.63h-22.9c.58,7.06,4.18,10.73,9,11.81,3.89.86,9.65-.58,11.45-3.96Zm-6.34-9.07c0-9.07-2.95-14.18-6.91-14.18-4.25,0-7.2,7.27-7.2,14.18h14.11Z"/>
    </g>
    <g class="cls-2">
      <path class="cls-1" d="m111.03,52.49v1.22h-14.76v-1.22c2.74-.86,2.88-3.89,2.88-7.56v-15.99c0-2.45-.72-3.46-3.67-5.04v-1.22l12.6-2.88v25.13c0,4.03.36,6.84,2.95,7.56Zm-8.14-48.25c2.74,0,4.97,2.16,4.97,4.9s-2.23,4.9-4.97,4.9-4.9-2.16-4.9-4.9,2.16-4.9,4.9-4.9Z"/>
    </g>
  </g>
  <g class="cls-2">
    <g class="cls-2">
      <path class="cls-1" d="m50.59,68.28h-.49v-2.3h-2.68v2.3h-.49v-4.73h.49v2.04h2.68v-2.04h.49v4.73Z"/>
      <path class="cls-1" d="m55.7,67.91c-.33.31-.81.48-1.37.48s-1.04-.17-1.37-.48c-.33-.3-.57-.82-.57-1.99s.23-1.67.54-1.97c.33-.33.82-.5,1.39-.5s1.06.18,1.39.5c.31.3.54.81.54,1.97s-.24,1.69-.57,1.99Zm-.35-3.68c-.25-.22-.6-.34-1.02-.34s-.77.12-1.02.34c-.24.21-.41.66-.41,1.69s.17,1.45.39,1.66c.25.23.61.36,1.04.36s.79-.13,1.04-.36c.22-.21.39-.64.39-1.66s-.18-1.48-.41-1.69Z"/>
      <path class="cls-1" d="m61.45,66.85c0,1.06-.69,1.53-1.72,1.53s-1.72-.47-1.72-1.53v-3.31h.49v3.31c0,.77.5,1.09,1.23,1.09s1.23-.32,1.23-1.09v-3.31h.49v3.31Z"/>
      <path class="cls-1" d="m64.57,68.38c-.62,0-1.2-.22-1.51-.58l.29-.36c.38.34.74.49,1.23.49.76,0,1.08-.41,1.08-.93,0-.48-.27-.8-.85-.95l-.69-.18c-.6-.16-.98-.46-.98-1.16,0-.63.41-1.27,1.5-1.27.48,0,.97.2,1.24.46l-.27.36c-.2-.17-.6-.38-.98-.38-.71,0-.99.36-.99.79,0,.39.23.62.6.71l.74.2c.79.21,1.18.66,1.18,1.39s-.44,1.4-1.58,1.4Z"/>
      <path class="cls-1" d="m70.6,68.28h-2.77v-4.73h2.61v.39h-2.12v1.65h1.37v.39h-1.37v1.91h2.28v.39Z"/>
    </g>
  </g>
</svg>